<svg width="48" height="48" viewBox="0 0 48 48" fill="none" xmlns="http://www.w3.org/2000/svg">
<path d="M22.9833 39.1654C21.2887 37.8577 20.039 35.9069 19.6365 33.6345H14.1715V9.73174C17.1158 11.2109 19.2129 14.4909 19.4671 17.878L20.2932 24.5879L19.8907 24.5236C19.0011 24.5236 18.2385 25.3597 18.2385 26.1957C18.2385 26.9675 18.8316 27.632 19.5942 27.8035L20.5897 28.0394C22.242 24.888 23.174 21.8011 23.174 18.7569C23.174 16.0129 22.8139 13.2904 22.7715 10.5035C22.7715 9.26012 23.2375 8.12393 24.0001 7.245C24.7626 8.14537 25.2286 9.26012 25.2286 10.5035C25.2286 13.2904 24.8262 16.0344 24.8262 18.7569C24.8262 21.7796 25.7582 24.888 27.4104 28.0394L28.406 27.8035C29.1685 27.632 29.7617 26.9675 29.7617 26.1957C29.7617 25.3597 28.9991 24.5236 28.1094 24.5236L27.707 24.5879L28.5331 17.878C28.9355 14.4909 30.8843 11.2109 33.8286 9.73174V33.6345H28.3636C27.9612 35.8855 26.775 37.922 25.0168 39.1654C24.6144 39.4655 24.2543 39.83 24.0213 40.3016C23.7459 39.8085 23.3858 39.4655 22.9833 39.1654ZM16.7557 25.3811C16.9887 24.4807 17.6454 23.709 18.4503 23.2374L17.7937 17.7065C17.5607 15.9915 16.8617 14.448 15.8025 13.1832V25.3597H16.7557V25.3811ZM19.5306 31.9624C19.5306 31.1264 19.6577 30.3546 19.8272 29.5829L19.0646 29.4114C17.942 29.0469 17.0735 28.168 16.7769 27.0318H15.8449V31.9624H19.5306ZM23.1528 31.9624C23.1528 30.9549 22.3902 30.0545 21.3947 29.9473C21.2252 30.5904 21.0981 31.255 21.0981 31.9624H23.1528ZM23.1528 33.6345H21.3311C21.6277 34.9422 22.2631 36.1213 23.1528 37.1503V33.6345ZM25.737 28.4681C25.038 27.1604 24.3814 25.7884 23.9789 24.3735C23.5764 25.8099 22.9198 27.1604 22.2208 28.4681C22.9198 28.6396 23.5129 29.1112 23.9789 29.6472C24.4449 29.1112 25.038 28.6396 25.737 28.4681ZM26.8597 31.9624C26.8597 31.255 26.7326 30.5904 26.5631 29.9473C25.5676 30.0759 24.805 30.9549 24.805 31.9624H26.8597ZM26.6267 33.6345H24.805V37.1503C25.6947 36.1213 26.3301 34.9422 26.6267 33.6345ZM32.1552 31.9624V27.0318H31.2232C30.9267 28.168 30.0582 29.0469 28.9355 29.4114L28.173 29.5829C28.3424 30.3546 28.4695 31.1264 28.4695 31.9624H32.1552ZM32.1552 25.3811V13.2046C31.0961 14.448 30.3336 15.9915 30.1641 17.7279L29.5075 23.2588C30.3336 23.7304 30.969 24.5022 31.202 25.4025H32.1552V25.3811Z" fill="black"/>
</svg>
